<svg width="181" height="209" viewBox="0 0 181 209" fill="none" xmlns="http://www.w3.org/2000/svg">
<path d="M142 44.5469L154 27.5469V148.547H69L133 56.5469L88 136.547H142V44.5469Z" fill="#545454" stroke="black"/>
<path d="M52.6866 148.924L25.0002 148.197L164 3.54682L52.6866 148.924Z" fill="#14A800"/>
<path d="M25 24.5469V138.547L105 51.5469L37 107.547V38.5469H120L134 24.5469H25Z" fill="#545454" stroke="black"/>
<path d="M18.3679 173.234V178.434H10.8799V173.234H18.3679ZM5.05588 162.293H12.2111V189H5.05588V162.293ZM17.4527 162.293H24.6079V189H17.4527V162.293ZM40.9902 173.442V168.408C40.9902 168.103 40.907 167.881 40.7405 167.742C40.5742 167.576 40.3107 167.493 39.9502 167.493H38.5773V162.293H42.155C44.3736 162.293 45.9406 162.764 46.8558 163.707C47.7987 164.65 48.2702 165.898 48.2702 167.451V173.442H40.9902ZM40.9902 182.885V172.901H48.2702V183.842C48.2702 185.395 47.7987 186.643 46.8558 187.586C45.9406 188.529 44.3736 189 42.155 189H38.5773V183.8H39.9502C40.3107 183.8 40.5742 183.731 40.7405 183.592C40.907 183.426 40.9902 183.19 40.9902 182.885ZM37.163 168.408V173.442H29.8829V167.451C29.8829 165.898 30.3405 164.65 31.2557 163.707C32.1987 162.764 33.7795 162.293 35.9982 162.293H39.5758V167.493H38.203C37.8424 167.493 37.5789 167.576 37.4126 167.742C37.2462 167.881 37.163 168.103 37.163 168.408ZM37.163 172.901V182.885C37.163 183.19 37.2462 183.426 37.4126 183.592C37.5789 183.731 37.8424 183.8 38.203 183.8H39.5758V189H35.9982C33.7795 189 32.1987 188.529 31.2557 187.586C30.3405 186.643 29.8829 185.395 29.8829 183.842V172.901H37.163ZM64.7281 173.65V168.408C64.7281 168.103 64.6449 167.881 64.4785 167.742C64.3121 167.576 64.0487 167.493 63.6881 167.493H55.9505V162.293H65.8929C68.1116 162.293 69.6785 162.764 70.5937 163.707C71.5367 164.65 72.0081 165.898 72.0081 167.451V174.357C72.0081 175.91 71.5367 177.158 70.5937 178.101C69.6785 179.044 68.1116 179.515 65.8929 179.515H55.9505V174.565H63.6881C64.0487 174.565 64.3121 174.495 64.4785 174.357C64.6449 174.19 64.7281 173.955 64.7281 173.65ZM53.5377 162.293H60.8177V189H53.5377V162.293ZM59.9857 176.603H67.0993L73.3393 189H65.5185L59.9857 176.603ZM76.9865 162.293H84.2665V189H76.9865V162.293ZM106.476 162.293V167.493H89.3784V162.293H106.476ZM98.8632 167.493H106.476L96.4504 183.8H88.8376L98.8632 167.493ZM106.185 183.8V189H88.8376V183.8H106.185ZM122.029 173.442V168.408C122.029 168.103 121.946 167.881 121.779 167.742C121.613 167.576 121.349 167.493 120.989 167.493H119.616V162.293H123.194C125.412 162.293 126.979 162.764 127.894 163.707C128.837 164.65 129.309 165.898 129.309 167.451V173.442H122.029ZM122.029 182.885V172.901H129.309V183.842C129.309 185.395 128.837 186.643 127.894 187.586C126.979 188.529 125.412 189 123.194 189H119.616V183.8H120.989C121.349 183.8 121.613 183.731 121.779 183.592C121.946 183.426 122.029 183.19 122.029 182.885ZM118.202 168.408V173.442H110.922V167.451C110.922 165.898 111.379 164.65 112.294 163.707C113.237 162.764 114.818 162.293 117.037 162.293H120.614V167.493H119.242C118.881 167.493 118.618 167.576 118.451 167.742C118.285 167.881 118.202 168.103 118.202 168.408ZM118.202 172.901V182.885C118.202 183.19 118.285 183.426 118.451 183.592C118.618 183.731 118.881 183.8 119.242 183.8H120.614V189H117.037C114.818 189 113.237 188.529 112.294 187.586C111.379 186.643 110.922 185.395 110.922 183.842V172.901H118.202ZM146.765 162.293H153.421V189H147.181L141.232 174.981V189H134.576V162.293H140.816L146.765 176.562V162.293ZM169.071 182.885V179.099C169.071 178.794 168.988 178.572 168.822 178.434C168.655 178.267 168.392 178.184 168.031 178.184H164.038C161.875 178.184 160.391 177.699 159.587 176.728C158.81 175.757 158.422 174.495 158.422 172.942V167.451C158.422 165.898 158.879 164.65 159.795 163.707C160.71 162.764 162.277 162.293 164.495 162.293H170.195C172.413 162.293 173.98 162.764 174.895 163.707C175.811 164.65 176.268 165.898 176.268 167.451V170.654H168.988V168.408C168.988 168.103 168.905 167.881 168.739 167.742C168.572 167.576 168.309 167.493 167.948 167.493H166.742C166.381 167.493 166.118 167.576 165.951 167.742C165.785 167.881 165.702 168.103 165.702 168.408V172.36C165.702 172.665 165.785 172.901 165.951 173.067C166.118 173.206 166.381 173.275 166.742 173.275H170.652C172.815 173.275 174.299 173.733 175.103 174.648C175.935 175.563 176.351 176.797 176.351 178.35V183.842C176.351 185.395 175.894 186.643 174.979 187.586C174.063 188.529 172.496 189 170.278 189H164.62C162.401 189 160.821 188.529 159.878 187.586C158.963 186.643 158.505 185.395 158.505 183.842V180.638H165.785V182.885C165.785 183.19 165.868 183.426 166.035 183.592C166.201 183.731 166.464 183.8 166.825 183.8H168.031C168.392 183.8 168.655 183.731 168.822 183.592C168.988 183.426 169.071 183.19 169.071 182.885Z" fill="#14A800"/>
</svg>
